<svg id="Capa_1" enable-background="new 0 0 465.294 465.294" height="512" viewBox="0 0 465.294 465.294" width="512" xmlns="http://www.w3.org/2000/svg"><path d="m299.118 232.647c-28.854 0-48.36 9.769-65.594 18.37-15.936 7.984-29.698 14.865-50.697 14.865h-.032c-40.165-.016-54.673-11.765-54.738-11.765l.016.016c-5.615-5.615-14.459-6.426-21.064-2.012-6.605 4.463-9.104 12.983-5.956 20.301 2.207 5.161 55.614 126.401 181.447 126.401 22.687 0 43.913-9.218 59.752-25.949 14.849-15.676 23.352-36.497 23.336-57.156-.016-40.829-24.894-83.071-66.47-83.071zm19.019 117.362c-9.526 10.045-22.168 15.579-35.637 15.579-63.095 0-104.607-37.779-127.845-68.304 8.163 1.136 17.51 1.834 28.14 1.834h.032c28.837 0 48.36-9.753 65.578-18.37 15.936-7.984 29.714-14.865 50.713-14.865 22.655 0 33.219 29.746 33.235 49.853 0 12.235-5.177 24.731-14.216 34.273z"/><path d="m465.294 116.324c0-9.185-7.432-16.618-16.618-16.618h-21.338c-14.865-57.174-66.46-99.706-128.22-99.706-73.303 0-132.941 59.638-132.941 132.941 0 21.243 5.031 41.82 14.524 60.32-48.993-8.001-97.272-26.16-113.208-58.064-2.386-4.771-6.929-8.114-12.204-8.974-5.274-.828-10.629.876-14.411 4.658-37.73 37.714-40.878 86.203-40.878 132.632 0 52.352 42.745 201.781 232.647 201.781 209.976 0 232.647-112.348 232.647-160.643 0-43.597-12.147-82.362-34.197-114.299 9.918-10.954 34.197-41.067 34.197-74.028zm-232.647 315.735c-162.785 0-199.412-124.827-199.412-168.546 0-40.814 3.229-69.781 18.24-93.198 41.187 46.883 125.655 57.74 163.288 60.255 7.092.195 13.307-3.375 16.196-9.623 2.872-6.248 1.623-13.615-3.181-18.549-18.289-18.792-28.367-43.459-28.367-69.456 0-54.981 44.725-99.706 99.706-99.706s99.706 44.725 99.706 99.706c0 14.232-3.246 28.399-9.656 42.096-2.856 6.102-1.753 13.323 2.807 18.273 26.225 28.578 40.083 67.071 40.083 111.342.002 82.162-70.818 127.406-199.41 127.406z"/><path d="m327.485 104.573c6.49 6.49 6.49 17.011 0 23.501s-17.011 6.49-23.501 0-6.49-17.011 0-23.501 17.012-6.49 23.501 0"/></svg>