<svg id="d186f4ac-ed95-4104-9291-a7333dc43de4" data-name="Layer 1" xmlns="http://www.w3.org/2000/svg" width="140" height="80" viewBox="0 0 140 80"><title>logoGR-blanco-p</title><path d="M7.31,57.78c0,3.11,2.44,5.46,4.13,5.46,2.16,0,9.08-15.6,13.83-27.15A37.19,37.19,0,0,1,35.7,30.81c-1.61,1.77-2.77,3.9-2.77,4.83a2.43,2.43,0,0,0,2.64,2.56c.91,0,4.47-2.74,6.52-4.94.94,2,2.62,3.38,4.06,3.38,2.62,0,5-2.19,6.29-4.37,0,.37,0,.76,0,1.2C52.48,35.86,51,38,50.26,38c-1.21,0-1.26-.43-1.72-.43-1.16,0,.09,2.73,2.5,2.73s4.86-2.64,4.86-6.9c0-5.2-1.41-6.47-2.5-6.47s-2.13.49-2.13,1c0,.3.23.52.5,1.06-.43,1.67-2.66,5.23-4.58,5.23-2.13,0-2.82-3-2.82-3.65a1.45,1.45,0,0,0-1.55-1.44,3.21,3.21,0,0,0-.52,0A2.18,2.18,0,0,0,40.4,28a4.74,4.74,0,0,0-2.47.84,32.68,32.68,0,0,0-11.43,4.2c1.25-3.1,2.26-5.7,2.86-7.33a5.36,5.36,0,0,0,1.44-2.42c0-1.31-1.07-2.16-1.85-1.38A26.47,26.47,0,0,0,27.5,25c-4,4.12-15.6,13.71-19.89,13.71-8.44,0,8.91-25.34,20.31-25.34,3.11,0,.81,5.36.81,5.7,0,1,4.43.76,4.43-3.11a4.71,4.71,0,0,0-4.25-4.95C16.38,11.06,1,30.11,1,38.07a4.78,4.78,0,0,0,4.94,4.78c3.59,0,13.38-7.33,19.55-13.11-.7,1.66-1.48,3.49-2.3,5.41C14.64,41,7.31,49.82,7.31,57.78ZM36.09,35.6c-1.09,0,2.5-5.52,4.37-5.52a1.61,1.61,0,0,1,.9.32,6.85,6.85,0,0,0,.07.71C40,32.89,37.23,35.6,36.09,35.6ZM11.58,58.79c-.52.52-1.19-.07-1.19-1.84,0-5.91,4.94-12.71,11.15-18C17.77,47.66,13.57,56.8,11.58,58.79Z" style="fill:#fff"/><path d="M39,21.8c.89,0,1.14-1,1.85-1.73A28.13,28.13,0,0,1,53.63,13.3a1.81,1.81,0,0,0-.43,1.06,2.07,2.07,0,0,0,2.13,2,9.69,9.69,0,0,0,3.44-1.49,5.62,5.62,0,0,0,.41.88,2.93,2.93,0,0,0,2.34,1.56c1.18,0,4-2.55,4-4.33,0-.47-.15-1-.58-1s-.54.49-.54.88-2.14,2.4-3.15,2.4-1.06-1.62-.79-1.89c.45-.45-.58-1.61-1.27-1.61a.49.49,0,0,0-.38.09,1.72,1.72,0,0,0-1.35-.77,2.88,2.88,0,0,0-.89.21c-5.35.38-13.07,4.3-16,6.47C43.21,13.07,50,6.76,53,5a1.22,1.22,0,0,0,.76.48c.74,0,2.27-1.8,2.27-2.3A1.35,1.35,0,0,0,54.58,1.9c-4.37,0-17.1,14.83-17.1,17.72A2,2,0,0,0,39,21.8Zm17.22-8.92c.36,0,.72-.05,1.05-.05a1.43,1.43,0,0,1,.77.28,5.93,5.93,0,0,1-2.62,1.35C54.64,14.46,55.24,13.42,56.24,12.88Z" style="fill:#fff"/><path d="M65.31,23.48c-14.25-.17-15.59-3.81-16.08-4.3a.87.87,0,0,0-1.39.49c0,1.09,3.3,6.33,13,6.33,1.15,0,2.26,0,3.34-.07-1.36,2.93-2.81,5.91-4.08,8.47a22.22,22.22,0,0,0,.16-2.53c0-1.64,0-3.08-.49-3.08s-.46.23-.46,1.61c0,3.12-2.42,10.38-4.88,14.11-1.31,2-2.91,3.65-2.91,4.75s1.09,2.3,1.87,2.3c1.23,0,3-3.38,4.44-7.59,2.71-5.12,6.18-12,9-18.2,12.4-1,19.1-4.63,19.1-5s-.14-.37-.3-.21-5.85,2.72-17.76,2.93c2.42-5.41,4.16-9.93,4.16-11.62,0-1.93-.9-3-1.77-3s-1.52.62-1.52,1.07a8.64,8.64,0,0,1,.44,2.87C69.21,14.38,67.48,18.67,65.31,23.48Z" style="fill:#fff"/><path d="M81.42,27.18a.39.39,0,0,0,.35.42,5.58,5.58,0,0,1,3-1c1,0,1.87.72,1.87,2.55,0,3.74-4.4,9.24-6.67,9.24a1.82,1.82,0,0,1-1.7-2c0-2.32,2.5-5.6,4.5-5.6.83,0,.7.35,1,.35s.66-.47.66-.89A1.25,1.25,0,0,0,83.19,29a8.46,8.46,0,0,0-5.68,3c-1,.18-2.2,0-2.2-.87,0-1.29,1.6-2.87,1.6-3.3a.93.93,0,0,0-.94-1c-1.79,0-4.11,2.85-5.87,5.61a9.67,9.67,0,0,0,.27-1.75C70.36,29,69.65,28,69,28c-.43,0-1.06.26-1.06.67s.29.51.29,1.59c0,3.62-2.75,7.59-2.75,8.23s.77,1,1.71,1a1.48,1.48,0,0,0,1.27-1s.17-.56.42-1.38a28.65,28.65,0,0,1,4.26-5.72,2.85,2.85,0,0,0,3.29,2.15,5.85,5.85,0,0,0-.73,2.74,4.77,4.77,0,0,0,4.73,4.87c4.18,0,9.21-7.65,9.21-12,0-3.35-1.62-4.52-4.22-4.52C83,24.65,81.42,26.5,81.42,27.18Z" style="fill:#fff"/><path d="M44.94,70.82A10.11,10.11,0,0,1,38,73.22c-3.71,0-6.22-5.37-8.58-9.34,6.23-4.31,13.36-11.61,13.36-14.39,0-2.52-1.42-3.62-3.37-3.62-4.49,0-10.23,3.83-15.55,8.8,3.48-7,6.25-13.19,6.25-14.76,0-1.21-.27-2.5-1.29-2.5s-1.37,1-1.37,1.84c0,2.53-4.92,12.86-9.58,21.67-5.4,6.25-9.37,12.6-9.37,15,0,1.33.71,2.17,1.68,2.17S16.34,69.26,21.15,60C26.8,54.19,35.38,48.21,39,48.21c3,0-4.39,9.35-10.53,14-1-1.52-2.08-2.57-3.23-2.57-3.1,0-8.3,7.52-3,7.52a11.12,11.12,0,0,0,4.88-1.83c2.35,4.69,5.77,12.3,10.38,12.3,3.45,0,8.3-5.25,8.3-6.1S45.29,70.47,44.94,70.82ZM23.1,64.88c-1.55,0,.3-3.1,1.5-3.1.45,0,1,.76,1.66,2A6.8,6.8,0,0,1,23.1,64.88Z" style="fill:#fff"/><path d="M42.4,62.59c3.05,0,5-2.82,5-3.85,0-1.37-1.75-2.51-3.49-2.51a8.51,8.51,0,0,0-8.37,7.91c0,3.13,3.33,4.22,4.84,4.22,4.1,0,7-4.6,7-5.27s-.42-.76-.84-.34S44,65.55,41.28,65.55,38.07,63.37,39,61.34A4.55,4.55,0,0,0,42.4,62.59ZM44,57.84c2.6,0,.81,3-1.65,3a3.56,3.56,0,0,1-2.4-1A5.44,5.44,0,0,1,44,57.84Z" style="fill:#fff"/><path d="M94.82,72.38c-.45,0-2.53-2.23-2.53-6.18,0-4.67,3.91-13.74,8.74-21.06a14,14,0,0,1,5.92,3.31c.34,0,.9-.45.9-.82,0-.71-1.71-2.69-5.66-4.18A43.06,43.06,0,0,1,106.72,38c2-2,.59-3.31-.06-3.31-1.21,0-4.38,3.27-7.68,7.84a36.61,36.61,0,0,0-8.22-.86c-7,0-12.44,3.56-12.44,6A1.41,1.41,0,0,0,79.4,49c.34,0,.64-.22.64-.49s-.37-.45-.37-.82c0-.9,5.55-3.6,13.53-3.6a32.75,32.75,0,0,1,4.44.28,61.33,61.33,0,0,0-6.68,12.63c-1.89,2.53-6,6.72-9.17,6.72-6.51,0-.35-10.16,3.84-10.16,2.49,0-1.08,4-2,5-.26.26,0,.58.33.58.66,0,4.24-3.44,4.24-5.6a2.68,2.68,0,0,0-2.86-2.32c-5.6,0-9.53,6.89-9.53,10.14,0,0,0,0,0,.06a4.33,4.33,0,0,1-1.6.34c-1.21,0-1.24-2.53-2-3.57.66-.75,1.6-2,1.6-2.57,0-.81-1.57-2.32-3.25-2.32-4.62,0-10.05,6.41-10.05,9a3.71,3.71,0,0,0,.2,1.25c-.55,1-1.58,2.14-2.41,2.14-.42,0-.67-.48-.67-1.32,0-4.42,8.53-18.86,9.94-20.27a2.17,2.17,0,0,0,.73-1.37c0-.83-.9-2-1.86-1A105.55,105.55,0,0,0,58,54.8a4.9,4.9,0,0,0-2.15-.44c-4.12,0-8.15,6-8.15,8.29,0,1.56,1.06,3.33,2.35,3.33.89,0,2.86-1.74,4.71-3.74a9.94,9.94,0,0,0-.43,2.59c0,1.18,1.12,4,2.88,4s3.69-2.29,4.55-3.82a3.16,3.16,0,0,0,1.64.57c1.54,0,5.68-5,6.78-5s.67,4.87,3.61,4.87A3.34,3.34,0,0,0,76.28,64a4.83,4.83,0,0,0,4.55,3c2.79,0,6.39-2.79,8.94-5.77a15.41,15.41,0,0,0-.3,2.86c0,7.8,3.5,9.43,5,9.43.54,0,1.44-.39,1.44-.92S95.27,72.38,94.82,72.38ZM50.44,63.24c-1.9,0,3-7.06,5.64-7.06a1.39,1.39,0,0,1,1,.36l-.4.82C55.15,59.76,51.87,63.24,50.44,63.24Zm12.85-.39c-1.74,0,3.36-7.5,7.14-7.5,1.15,0,2.24.75.83,2.42C68.75,57.91,64.26,62.84,63.3,62.84Z" style="fill:#fff"/><path d="M137.82,60.95a8.51,8.51,0,0,1-5.14,1.55c-4.34,0-4.78-3.71-5.2-5.77.88-.48,1.76-1.18,1.76-2.08a3,3,0,0,0-3-3.12c-4.82,0-8.52,4.83-9.47,8-.88,1.26-2.86,3.86-4.13,3.86-.42,0-.63-.25-.63-.77,0-3.17,4.26-6.93,4.26-8.3,0-.87-1-2.24-1.74-4,1.33-2.13,2.28-4.19,2.28-5.6,0-3.83-5.26-2.44-5.26,1.21a11.32,11.32,0,0,0,.83,4.24,22.94,22.94,0,0,1-5.05,5.44,1.4,1.4,0,0,0-.39-.42c-.13-.8-.67-2.79-2.8-2.79-4.48,0-7.42,5.35-7.42,8.28s1.91,4.21,3.71,4.25c2.51.05,6.06-3.23,7-6.36a30.89,30.89,0,0,0,5.83-6.35,3.88,3.88,0,0,1,.35,1.41c0,1.08-4.91,6.61-4.91,9.82,0,1.14,1.41,3.37,3.1,3.37,1.29,0,3.69-2.45,5.13-4.5a2.14,2.14,0,0,0,1.6,1.22c1.09,0,5.68-5.06,6.52-5.06.24,0,1.78,7.87,7.64,7.87,3.48,0,6.33-3.48,6.33-4.9C139,60.54,138.36,60.41,137.82,60.95Zm-37.28,1c-3.17,0,.12-7.42,3.23-7.42a1.37,1.37,0,0,1,1.27.75,2.19,2.19,0,0,0-1,1.78,2,2,0,0,0,.48,1.35C103.78,60.13,102.15,62,100.54,62Zm19.71-3.1c-1.45,0,3.12-5.46,6.2-5.46.94,0,1.21.43,1.21.87s-.38.74-.85,1.1h0C124.93,55.38,121.09,58.88,120.25,58.88Z" style="fill:#fff"/></svg>